<?xml version="1.0" encoding="UTF-8" standalone="no"?>
<!-- Created with Inkscape (http://www.inkscape.org/) -->

<svg
   width="91.998627mm"
   height="98.787025mm"
   viewBox="0 0 91.998627 98.787025"
   version="1.1"
   id="svg5"
   xml:space="preserve"
   inkscape:export-filename="bitmap.svg"
   inkscape:export-xdpi="94.758255"
   inkscape:export-ydpi="94.758255"
   xmlns:inkscape="http://www.inkscape.org/namespaces/inkscape"
   xmlns:sodipodi="http://sodipodi.sourceforge.net/DTD/sodipodi-0.dtd"
   xmlns="http://www.w3.org/2000/svg"
   xmlns:svg="http://www.w3.org/2000/svg"><sodipodi:namedview
     id="namedview7"
     pagecolor="#ffffff"
     bordercolor="#000000"
     borderopacity="0.25"
     inkscape:showpageshadow="2"
     inkscape:pageopacity="0.0"
     inkscape:pagecheckerboard="0"
     inkscape:deskcolor="#d1d1d1"
     inkscape:document-units="mm"
     showgrid="false" /><defs
     id="defs2" /><g
     inkscape:label="Layer 1"
     inkscape:groupmode="layer"
     id="layer1"
     transform="translate(-56.249452,-55.201956)"><g
       id="g190"
       transform="matrix(0.35277778,0,0,0.35277778,-0.44726883,-13.165479)"><path
         d="m 273.79818,194.94407 c -32,4.082 -61.32,19.965 -82.223,44.535 -20.902,24.566 -31.883,56.055 -30.785,88.297 0.13281,19.723 5.7812,39.012 16.297,55.695 10.52,16.684 25.492,30.098 43.23,38.719 2.5117,1.2695 4.625,3.2031 6.1094,5.5938 1.4805,2.3906 2.2734,5.1445 2.293,7.9609 v 14.336 c 0,6.2969 2.5,12.336 6.9531,16.789 4.4531,4.4531 10.492,6.9531 16.789,6.9531 h 3.3047 c 2.0625,0 4.043,-0.82031 5.5039,-2.2812 1.4609,-1.457 2.2812,-3.4375 2.2812,-5.5039 v -20.664 c -0.0703,-3.5664 2.5195,-6.6328 6.0469,-7.168 1.9141,-0.1875 3.8203,0.4375 5.25,1.7305 1.4297,1.2891 2.2461,3.1211 2.2539,5.0469 v 21.055 c -0.0156,2.0586 0.79297,4.0391 2.2422,5.5 1.4531,1.4648 3.4258,2.2852 5.4844,2.2852 h 12.547 c 2.0586,0 4.0312,-0.82031 5.4844,-2.2852 1.4492,-1.4609 2.2578,-3.4414 2.2422,-5.5 v -20.664 c -0.082,-3.6523 2.6406,-6.7617 6.2734,-7.168 1.8867,-0.15625 3.75,0.48828 5.1367,1.7773 1.3867,1.293 2.1641,3.1055 2.1406,5 v 21.055 c 0,4.3008 3.4844,7.7852 7.7852,7.7852 h 3.3047 c 6.2969,0 12.336,-2.5 16.789,-6.9531 4.4531,-4.4531 6.9531,-10.492 6.9531,-16.789 v -14.395 c 0.008,-2.793 0.79297,-5.5312 2.2656,-7.9023 1.4766,-2.375 3.5781,-4.2891 6.0781,-5.5352 18.277,-8.9375 33.605,-22.922 44.176,-40.301 10.57,-17.379 15.938,-37.422 15.465,-57.758 -0.008,-37.594 -16.238,-73.352 -44.523,-98.109 -28.289,-24.762 -65.887,-36.109 -103.15,-31.137 z m -32.031,201.21 c -10.59,0 -20.746,-4.207 -28.234,-11.695 -7.4883,-7.4883 -11.695,-17.645 -11.695,-28.234 0,-10.59 4.207,-20.742 11.695,-28.23 7.4883,-7.4883 17.645,-11.695 28.234,-11.695 10.59,0 20.746,4.207 28.234,11.695 7.4883,7.4883 11.695,17.641 11.695,28.23 0,10.59 -4.207,20.746 -11.695,28.234 -7.4883,7.4883 -17.645,11.695 -28.234,11.695 z m 98.672,0 c -10.59,0 -20.746,-4.207 -28.234,-11.695 -7.4883,-7.4883 -11.695,-17.645 -11.695,-28.234 0,-10.59 4.207,-20.742 11.695,-28.23 7.4883,-7.4883 17.645,-11.695 28.234,-11.695 10.59,0 20.746,4.207 28.234,11.695 7.4883,7.4883 11.695,17.641 11.695,28.23 0,10.59 -4.207,20.746 -11.695,28.234 -7.4883,7.4883 -17.645,11.695 -28.234,11.695 z"
         id="path118" /></g></g></svg>
